#N canvas 833 65 1400 1211 10;
#X obj 181 236 osc~;
#X text 181 169 audio out;
#X text 16 -734 --------------------- INIT ---------------------;
#X obj 34 221 tabread array_notes;
#X obj 34 198 r counter_out;
#X text 34 172 pitch CV out;
#X obj 34 245 change;
#X obj 181 195 r pitch;
#X obj 181 215 mtof;
#X obj 32 -285 hsl 128 15 0 127 0 0 empty empty empty -2 -8 0 10 -262144
-1 -1 5200 1;
#X obj 116 -255 change;
#X obj 346 -20 hsl 128 15 0 127 0 0 empty empty empty -2 -8 0 10 -262144
-1 -1 12700 1;
#X obj 430 10 change;
#X obj 343 69 s FM_freq;
#X obj 517 -22 hsl 128 15 0 127 0 0 empty empty empty -2 -8 0 10 -262144
-1 -1 0 1;
#X obj 601 8 change;
#X text 32 143 --------------------- CV out ---------------------;
#X obj 514 66 s FM_depth;
#X obj 34 268 dac~ 9;
#X obj 182 264 dac~ 10;
#X obj 668 72 s scale;
#X obj 668 46 expr int($f1/ (127/6)+0.5);
#X obj 671 -16 hsl 128 15 0 127 0 0 empty empty empty -2 -8 0 10 -262144
-1 -1 8100 1;
#X obj 747 14 change;
#X obj 13 835 dac~ 11;
#X obj 11 591 +~;
#X obj 29 -196 s note1;
#X obj 188 -285 hsl 128 15 0 127 0 0 empty empty empty -2 -8 0 10 -262144
-1 -1 6700 1;
#X obj 272 -255 change;
#X obj 185 -198 s note2;
#X obj 47 -255 ctlin 32;
#X obj 203 -255 ctlin 33;
#X obj 185 -222 f;
#X obj 29 -222 f;
#X obj 334 -285 hsl 128 15 0 127 0 0 empty empty empty -2 -8 0 10 -262144
-1 -1 7800 1;
#X obj 418 -255 change;
#X obj 331 -222 f;
#X obj 477 -285 hsl 128 15 0 127 0 0 empty empty empty -2 -8 0 10 -262144
-1 -1 4600 1;
#X obj 561 -255 change;
#X obj 474 -222 f;
#X obj 620 -283 hsl 128 15 0 127 0 0 empty empty empty -2 -8 0 10 -262144
-1 -1 5800 1;
#X obj 704 -253 change;
#X obj 617 -220 f;
#X obj 349 -255 ctlin 34;
#X obj 492 -255 ctlin 35;
#X obj 635 -253 ctlin 36;
#X obj 331 -198 s note3;
#X obj 474 -198 s note4;
#X obj 617 -196 s note5;
#X obj 106 484 r wavemorph;
#X obj 74 448 r FM_freq;
#X obj 90 466 r FM_depth;
#X obj 26 392 r note1;
#X obj 42 410 r scale;
#X obj 11 656 +~;
#X obj 11 721 +~;
#X obj 12 785 +~;
#X obj 13 810 /~ 5;
#X obj 30 -158 hsl 128 15 0 127 0 0 empty empty empty -2 -8 0 10 -262144
-1 -1 5500 1;
#X obj 114 -128 change;
#X obj 186 -158 hsl 128 15 0 127 0 0 empty empty empty -2 -8 0 10 -262144
-1 -1 0 1;
#X obj 270 -128 change;
#X obj 332 -158 hsl 128 15 0 127 0 0 empty empty empty -2 -8 0 10 -262144
-1 -1 0 1;
#X obj 416 -128 change;
#X obj 475 -158 hsl 128 15 0 127 0 0 empty empty empty -2 -8 0 10 -262144
-1 -1 0 1;
#X obj 559 -128 change;
#X obj 618 -156 hsl 128 15 0 127 0 0 empty empty empty -2 -8 0 10 -262144
-1 -1 0 1;
#X obj 702 -126 change;
#X obj 27 -69 s detune1;
#X obj 183 -71 s detune2;
#X obj 329 -71 s detune3;
#X obj 472 -71 s detune4;
#X obj 615 -69 s detune5;
#X obj 58 429 r detune1;
#X obj 45 -128 ctlin 37;
#X obj 201 -128 ctlin 38;
#X obj 347 -128 ctlin 39;
#X obj 684 14 ctlin 47;
#X obj 191 -21 hsl 128 15 0 127 0 0 empty empty empty -2 -8 0 10 -262144
-1 -1 0 1;
#X obj 275 9 change;
#X obj 188 42 expr ($f1/127);
#X obj 188 67 s wavemorph;
#X obj 206 9 ctlin 44;
#X obj 361 10 ctlin 45;
#X obj 532 8 ctlin 46;
#X msg 88 -197 0;
#X msg 242 -197 0;
#X msg 386 -199 0;
#X msg 526 -199 0;
#X msg 671 -198 0;
#X obj 490 -128 ctlin 40;
#X obj 633 -126 ctlin 41;
#X obj 27 -95 expr ($f1/127)-0.5;
#X obj 183 -95 expr ($f1/127)-0.5;
#X obj 329 -95 expr ($f1/127)-0.5;
#X obj 472 -95 expr ($f1/127)-0.5;
#X obj 615 -93 expr ($f1/127)-0.5;
#X obj 122 502 r glide;
#X obj 34 -21 hsl 128 15 0 127 0 0 empty empty empty -2 -8 0 10 -262144
-1 -1 0 1;
#X obj 49 9 ctlin 43;
#X obj 31 67 s glide;
#X obj 110 10 change;
#X obj 11 526 voice 0 1 0 0 0 0 0;
#X obj 31 42 expr ($f1/127)*1000;
#X obj 343 43 expr $f1;
#X obj 514 41 expr $f1/127;
#X text 7 333 --------------------- Voices ---------------------;
#X text 20 -329 --------------------- MIDI in ---------------------
;
#X text 23 -559 --------------------- AD in ---------------------;
#X obj 166 -419 hsl 128 15 -1 1 0 0 empty empty empty -2 -8 0 10 -262144
-1 -1 7786 1;
#X obj 85 -463 snapshot~;
#X obj 126 -522 loadbang;
#X obj 11 374 r basenote;
#X obj 68 -526 adc~ 3;
#X obj 187 -522 bng 15 250 50 0 empty empty empty 17 7 0 10 -262144
-1 -1;
#X obj 73 -366 s basenote;
#X obj 73 -405 * 127;
#X obj 276 483 r wavemorph;
#X obj 244 447 r FM_freq;
#X obj 260 465 r FM_depth;
#X obj 212 409 r scale;
#X obj 292 501 r glide;
#X obj 181 525 voice 0 1 0 0 0 0 0;
#X obj 181 373 r basenote;
#X obj 196 391 r note2;
#X obj 228 428 r detune2;
#X obj 453 484 r wavemorph;
#X obj 421 448 r FM_freq;
#X obj 437 466 r FM_depth;
#X obj 389 410 r scale;
#X obj 469 502 r glide;
#X obj 358 526 voice 0 1 0 0 0 0 0;
#X obj 358 374 r basenote;
#X obj 373 392 r note3;
#X obj 405 429 r detune3;
#X obj 648 483 r wavemorph;
#X obj 616 447 r FM_freq;
#X obj 632 465 r FM_depth;
#X obj 584 409 r scale;
#X obj 664 501 r glide;
#X obj 553 525 voice 0 1 0 0 0 0 0;
#X obj 553 373 r basenote;
#X obj 568 391 r note4;
#X obj 600 428 r detune4;
#X obj 839 481 r wavemorph;
#X obj 807 445 r FM_freq;
#X obj 823 463 r FM_depth;
#X obj 775 407 r scale;
#X obj 855 499 r glide;
#X obj 744 523 voice 0 1 0 0 0 0 0;
#X obj 744 371 r basenote;
#X obj 759 389 r note5;
#X obj 791 426 r detune5;
#X obj 127 -496 metro 10;
#X connect 0 0 19 0;
#X connect 3 0 6 0;
#X connect 4 0 3 0;
#X connect 6 0 18 0;
#X connect 7 0 8 0;
#X connect 8 0 0 0;
#X connect 9 0 33 0;
#X connect 10 0 9 0;
#X connect 10 0 85 0;
#X connect 11 0 104 0;
#X connect 12 0 11 0;
#X connect 14 0 105 0;
#X connect 15 0 14 0;
#X connect 21 0 20 0;
#X connect 22 0 21 0;
#X connect 23 0 22 0;
#X connect 25 0 54 0;
#X connect 27 0 32 0;
#X connect 28 0 27 0;
#X connect 28 0 86 0;
#X connect 30 0 10 0;
#X connect 30 0 33 0;
#X connect 31 0 28 0;
#X connect 31 0 32 0;
#X connect 32 0 29 0;
#X connect 33 0 26 0;
#X connect 34 0 36 0;
#X connect 35 0 34 0;
#X connect 35 0 87 0;
#X connect 36 0 46 0;
#X connect 37 0 39 0;
#X connect 38 0 37 0;
#X connect 38 0 88 0;
#X connect 39 0 47 0;
#X connect 40 0 42 0;
#X connect 41 0 40 0;
#X connect 41 0 89 0;
#X connect 42 0 48 0;
#X connect 43 0 35 0;
#X connect 43 0 36 0;
#X connect 44 0 38 0;
#X connect 44 0 39 0;
#X connect 45 0 41 0;
#X connect 45 0 42 0;
#X connect 49 0 102 6;
#X connect 50 0 102 4;
#X connect 51 0 102 5;
#X connect 52 0 102 1;
#X connect 53 0 102 2;
#X connect 54 0 55 0;
#X connect 55 0 56 0;
#X connect 56 0 57 0;
#X connect 57 0 24 0;
#X connect 58 0 92 0;
#X connect 59 0 58 0;
#X connect 60 0 93 0;
#X connect 61 0 60 0;
#X connect 62 0 94 0;
#X connect 63 0 62 0;
#X connect 64 0 95 0;
#X connect 65 0 64 0;
#X connect 66 0 96 0;
#X connect 67 0 66 0;
#X connect 73 0 102 3;
#X connect 74 0 59 0;
#X connect 74 0 92 0;
#X connect 75 0 61 0;
#X connect 75 0 93 0;
#X connect 76 0 63 0;
#X connect 76 0 94 0;
#X connect 77 0 21 0;
#X connect 77 0 23 0;
#X connect 78 0 80 0;
#X connect 79 0 78 0;
#X connect 80 0 81 0;
#X connect 82 0 80 0;
#X connect 82 0 79 0;
#X connect 83 0 12 0;
#X connect 83 0 104 0;
#X connect 84 0 15 0;
#X connect 84 0 105 0;
#X connect 85 0 58 0;
#X connect 86 0 60 0;
#X connect 87 0 62 0;
#X connect 88 0 64 0;
#X connect 89 0 66 0;
#X connect 90 0 65 0;
#X connect 90 0 95 0;
#X connect 91 0 67 0;
#X connect 91 0 96 0;
#X connect 92 0 68 0;
#X connect 93 0 69 0;
#X connect 94 0 70 0;
#X connect 95 0 71 0;
#X connect 96 0 72 0;
#X connect 97 0 102 7;
#X connect 98 0 103 0;
#X connect 99 0 101 0;
#X connect 99 0 103 0;
#X connect 101 0 98 0;
#X connect 102 0 25 0;
#X connect 103 0 100 0;
#X connect 104 0 13 0;
#X connect 105 0 17 0;
#X connect 110 0 109 0;
#X connect 110 0 116 0;
#X connect 111 0 153 0;
#X connect 112 0 102 0;
#X connect 113 0 110 0;
#X connect 114 0 153 0;
#X connect 116 0 115 0;
#X connect 117 0 122 6;
#X connect 118 0 122 4;
#X connect 119 0 122 5;
#X connect 120 0 122 2;
#X connect 121 0 122 7;
#X connect 122 0 25 1;
#X connect 123 0 122 0;
#X connect 124 0 122 1;
#X connect 125 0 122 3;
#X connect 126 0 131 6;
#X connect 127 0 131 4;
#X connect 128 0 131 5;
#X connect 129 0 131 2;
#X connect 130 0 131 7;
#X connect 131 0 54 1;
#X connect 132 0 131 0;
#X connect 133 0 131 1;
#X connect 134 0 131 3;
#X connect 135 0 140 6;
#X connect 136 0 140 4;
#X connect 137 0 140 5;
#X connect 138 0 140 2;
#X connect 139 0 140 7;
#X connect 140 0 55 1;
#X connect 141 0 140 0;
#X connect 142 0 140 1;
#X connect 143 0 140 3;
#X connect 144 0 149 6;
#X connect 145 0 149 4;
#X connect 146 0 149 5;
#X connect 147 0 149 2;
#X connect 148 0 149 7;
#X connect 149 0 56 1;
#X connect 150 0 149 0;
#X connect 151 0 149 1;
#X connect 152 0 149 3;
#X connect 153 0 110 0;
#X coords 0 0 5 1 0 0 0;
