#N canvas 409 353 1412 865 12;
#X obj 1140 501 *~;
#X obj 1195 502 *~;
#X obj 1163 535 +~;
#X obj 1213 474 expr 1 - $f1;
#X obj 1140 420 phasor~;
#X obj 1195 420 osc~;
#X obj 1142 90 mscale;
#X obj 1140 448 -~ 0.5;
#X obj 1140 476 *~ 2;
#X obj 1163 592 outlet~;
#X obj 95 39 inlet;
#X obj 183 39 inlet;
#X obj 301 39 inlet;
#X obj 395 39 inlet;
#X obj 492 39 inlet;
#X obj 600 39 inlet;
#X obj 95 217 s \$0-note;
#X obj 1245 -27 r \$0-note;
#X obj 1181 64 r \$0-scale_list;
#X obj 301 217 s \$0-detune;
#X obj 1160 114 r \$0-detune;
#X obj 395 217 s \$0-FM_freq;
#X obj 492 217 s \$0-FM_depth;
#X obj 600 217 s \$0-wavemorph;
#X obj 1213 446 r \$0-wavemorph;
#X obj 95 185 f;
#X obj 343 125 bang;
#X obj 107 335 r \$0-note;
#X obj 372 335 r \$0-detune;
#X obj 512 335 r \$0-FM_freq;
#X obj 660 335 r \$0-FM_depth;
#X obj 818 335 r \$0-wavemorph;
#X msg -1 630 0 2 4 5 7 9 11;
#X msg 124 630 0 2 3 5 7 8 10;
#X msg 250 630 0 4 7;
#X msg 368 630 0 3 7;
#X text -3 547 Major scale;
#X text 123 547 Minor scale;
#X text 248 547 Major triad;
#X text 364 546 Minor triad;
#X msg 493 630 0 2 4 7 9;
#X msg 625 630 0 3 5 7 10;
#X obj -1 599 sel 1;
#X obj 124 599 sel 2;
#X obj 250 599 sel 3;
#X obj 368 599 sel 4;
#X obj 493 599 sel 5;
#X obj 625 599 sel 6;
#X text 492 545 Major pentatonic;
#X text 625 545 Minor pentatonic;
#X text -5 524 --------------------- QUANTIZATION ---------------------
;
#X text 755 545 All;
#X msg 755 630 0 1 2 3 4 5 6 7 8 9 10 11;
#X obj 755 599 sel 0;
#X obj -1 661 s \$0-scale_list;
#X obj 123 661 s \$0-scale_list;
#X obj 250 661 s \$0-scale_list;
#X obj 368 661 s \$0-scale_list;
#X obj 493 661 s \$0-scale_list;
#X obj 625 661 s \$0-scale_list;
#X obj 755 661 s \$0-scale_list;
#X obj 183 217 s \$0-scale;
#X obj 235 335 r \$0-scale;
#X obj -1 569 r \$0-scale;
#X obj 124 569 r \$0-scale;
#X obj 250 568 r \$0-scale;
#X obj 368 569 r \$0-scale;
#X obj 493 569 r \$0-scale;
#X obj 625 569 r \$0-scale;
#X obj 755 569 r \$0-scale;
#X obj 52 453 print;
#X obj 183 185 f;
#X obj 301 185 f;
#X obj 395 185 f;
#X obj 492 185 f;
#X obj 600 185 f;
#X obj 52 335 symbol;
#X msg 52 305 Note;
#X obj 182 335 symbol;
#X msg 182 305 Scale;
#X obj 317 335 symbol;
#X msg 317 305 Detune;
#X obj 459 335 symbol;
#X msg 459 305 FM_freq;
#X obj 608 335 symbol;
#X msg 608 305 FM_depth;
#X obj 764 335 symbol;
#X msg 764 305 Waveform;
#X obj 1142 140 +;
#X obj 1047 501 expr $f1 > 0;
#X text 823 502 Switch off sound when note = 0;
#X obj 1163 564 *~;
#X obj 1142 189 pack f f;
#X obj 1142 164 mtof;
#X obj 1142 314 line~;
#X obj 717 39 inlet;
#X obj 717 185 f;
#X obj 717 217 s \$0-glide;
#X obj 1195 164 r \$0-glide;
#X obj 1226 194 r \$0-FM_freq;
#X obj 1263 287 r \$0-FM_depth;
#X obj 1208 347 *~;
#X obj 1141 383 +~;
#X obj 1226 287 osc~;
#X obj 1226 219 mtof;
#X obj 1227 312 *~;
#X obj 1226 243 pack f f;
#X obj 1279 218 r \$0-glide;
#X obj 1226 265 line~;
#X obj -11 39 inlet;
#X obj -11 185 f;
#X obj -11 217 s \$0-basenote;
#X obj -111 335 symbol;
#X obj -56 335 r \$0-basenote;
#X obj 52 425 pack s f s f s f s f s f s f s f;
#X obj 1142 64 +;
#X obj 1142 -28 r \$0-basenote;
#X obj 1142 30 f;
#X obj 1171 1 bang;
#X msg -111 305 Basenote;
#X connect 0 0 2 0;
#X connect 1 0 2 1;
#X connect 2 0 91 0;
#X connect 3 0 1 1;
#X connect 4 0 7 0;
#X connect 5 0 1 0;
#X connect 6 0 88 0;
#X connect 7 0 8 0;
#X connect 8 0 0 0;
#X connect 10 0 25 0;
#X connect 11 0 71 0;
#X connect 11 0 26 0;
#X connect 12 0 72 0;
#X connect 12 0 26 0;
#X connect 13 0 73 0;
#X connect 13 0 26 0;
#X connect 14 0 74 0;
#X connect 14 0 26 0;
#X connect 15 0 75 0;
#X connect 15 0 26 0;
#X connect 17 0 115 1;
#X connect 17 0 118 0;
#X connect 18 0 6 2;
#X connect 20 0 88 1;
#X connect 24 0 3 0;
#X connect 24 0 0 1;
#X connect 25 0 16 0;
#X connect 26 0 25 0;
#X connect 26 0 110 0;
#X connect 26 0 71 0;
#X connect 26 0 72 0;
#X connect 26 0 73 0;
#X connect 26 0 74 0;
#X connect 26 0 75 0;
#X connect 26 0 96 0;
#X connect 27 0 114 3;
#X connect 28 0 114 7;
#X connect 29 0 114 9;
#X connect 30 0 114 11;
#X connect 31 0 114 13;
#X connect 32 0 54 0;
#X connect 33 0 55 0;
#X connect 34 0 56 0;
#X connect 35 0 57 0;
#X connect 40 0 58 0;
#X connect 41 0 59 0;
#X connect 42 0 32 0;
#X connect 43 0 33 0;
#X connect 44 0 34 0;
#X connect 45 0 35 0;
#X connect 46 0 40 0;
#X connect 47 0 41 0;
#X connect 52 0 60 0;
#X connect 53 0 52 0;
#X connect 62 0 114 5;
#X connect 63 0 42 0;
#X connect 64 0 43 0;
#X connect 65 0 44 0;
#X connect 66 0 45 0;
#X connect 67 0 46 0;
#X connect 68 0 47 0;
#X connect 69 0 53 0;
#X connect 71 0 61 0;
#X connect 72 0 19 0;
#X connect 73 0 21 0;
#X connect 74 0 22 0;
#X connect 75 0 23 0;
#X connect 76 0 114 2;
#X connect 77 0 76 0;
#X connect 78 0 114 4;
#X connect 79 0 78 0;
#X connect 80 0 114 6;
#X connect 81 0 80 0;
#X connect 82 0 114 8;
#X connect 83 0 82 0;
#X connect 84 0 114 10;
#X connect 85 0 84 0;
#X connect 86 0 114 12;
#X connect 87 0 86 0;
#X connect 88 0 93 0;
#X connect 89 0 91 1;
#X connect 91 0 9 0;
#X connect 92 0 94 0;
#X connect 93 0 92 0;
#X connect 94 0 101 0;
#X connect 94 0 102 0;
#X connect 95 0 96 0;
#X connect 95 0 26 0;
#X connect 96 0 97 0;
#X connect 98 0 92 1;
#X connect 99 0 104 0;
#X connect 100 0 105 1;
#X connect 101 0 102 1;
#X connect 102 0 4 0;
#X connect 102 0 5 0;
#X connect 103 0 105 0;
#X connect 104 0 106 0;
#X connect 105 0 101 1;
#X connect 106 0 108 0;
#X connect 107 0 106 1;
#X connect 108 0 103 0;
#X connect 109 0 110 0;
#X connect 109 0 26 0;
#X connect 110 0 111 0;
#X connect 110 0 119 0;
#X connect 112 0 114 0;
#X connect 113 0 114 1;
#X connect 114 0 70 0;
#X connect 115 0 6 0;
#X connect 115 0 89 0;
#X connect 116 0 117 0;
#X connect 117 0 115 0;
#X connect 118 0 117 0;
#X connect 119 0 112 0;
